<svg xmlns="http://www.w3.org/2000/svg" viewBox="0 0 64 64" width="64" height="64"><circle cx="32" cy="32" r="32" fill="#FFFF1E"/><g transform="translate(-16.022 -11.403) scale(1.4197)"><g fill="none" stroke="#000000" stroke-linecap="round" stroke-linejoin="round"><path d="M37.43 28.61L37.37 28.47L37.31 28.34L37.25 28.20L37.18 28.07L37.12 27.94L37.04 27.81L36.97 27.68L36.89 27.55L36.81 27.42L36.72 27.30L36.63 27.17L36.54 27.05L36.44 26.93L36.35 26.81L36.25 26.69L36.14 26.58L36.03 26.47L35.92 26.36L35.81 26.25L35.69 26.14L35.57 26.04L35.45 25.93L35.33 25.84L35.20 25.74L35.07 25.64L34.94 25.55L34.80 25.46L34.66 25.38L34.52 25.30L34.38 25.22L34.24 25.14L34.09 25.07L33.94 25.00L33.79 24.93L33.63 24.86L33.48 24.80L33.32 24.75L33.16 24.69L33.00 24.64L32.84 24.60L32.67 24.55L32.51 24.51L32.34 24.48L32.17 24.44L32.00 24.42L31.83 24.39L31.66 24.37L31.48 24.35L31.31 24.34L31.13 24.33L30.96 24.33L30.78 24.33L30.61 24.33L30.43 24.34L30.25 24.35L30.07 24.37L29.89 24.39L29.72 24.41L29.54 24.44L29.36 24.47L29.18 24.51L29.00 24.55L28.83 24.59L28.65 24.64L28.47 24.70L28.30 24.75L28.12 24.82L27.95 24.88L27.78 24.95L27.61 25.03L27.44 25.11L27.27 25.19L27.10 25.28L26.93 25.37L26.77 25.46L26.61 25.56L26.45 25.66L26.29 25.77L26.13 25.88L25.98 26.00L25.82 26.12L25.67 26.24L25.53 26.37L25.38 26.50L25.24 26.63L25.10 26.77L24.96 26.91L24.83 27.05L24.69 27.20L24.57 27.35L24.44 27.51L24.32 27.67L24.20 27.83L24.08 27.99L23.97 28.16L23.86 28.33L23.76 28.50L23.66 28.68L23.56 28.86L23.47 29.04L23.38 29.23L23.29 29.41L23.21 29.60L23.13 29.80L23.06 29.99L22.99 30.19L22.93 30.38L22.87 30.58L22.81 30.79L22.76 30.99L22.72 31.20L22.67 31.40L22.64 31.61L22.60 31.82L22.58 32.03L22.55 32.25L22.53 32.46L22.52 32.68L22.51 32.89L22.51 33.11L22.51 33.32L22.52 33.54L22.53 33.76L22.54 33.98L22.56 34.20L22.59 34.41L22.62 34.63L22.66 34.85L22.70 35.07L22.75 35.28L22.80 35.50L22.85 35.72L22.92 35.93L22.98 36.15L23.06 36.36L23.13 36.57L23.21 36.78L23.30 36.99L23.39 37.20L23.49 37.41L23.59 37.61L23.70 37.81L23.81 38.01L23.93 38.21L24.05 38.41L24.17 38.60L24.31 38.80L24.44 38.99L24.58 39.17L24.73 39.36L24.87 39.54L25.03 39.71L25.19 39.89L25.35 40.06L25.52 40.23L25.69 40.39L25.86 40.55L26.04 40.71L26.22 40.87L26.41 41.02L26.60 41.16L26.80 41.30L26.99 41.44L27.20 41.58L27.40 41.71L27.61 41.83L27.82 41.95L28.04 42.07L28.26 42.18L28.48 42.28L28.70 42.39L28.93 42.48L29.16 42.58L29.39 42.66L29.63 42.74L29.86 42.82L30.10 42.89L30.34 42.96L30.59 43.02L30.83 43.07L31.08 43.12L31.33 43.17L31.58 43.21L31.83 43.24L32.08 43.27L32.34 43.29L32.59 43.30L32.85 43.31L33.11 43.32L33.36 43.32L33.62 43.31L33.88 43.29L34.14 43.28L34.40 43.25L34.65 43.22L34.91 43.18L35.17 43.14L35.43 43.09L35.69 43.03L35.94 42.97L36.20 42.91L36.45 42.83L36.70 42.76L36.96 42.67L37.21 42.58L37.46 42.48L37.70 42.38L37.95 42.27L38.19 42.16L38.43 42.04L38.67 41.91L38.91 41.78L39.14 41.65L39.37 41.50L39.60 41.36L39.83 41.20L40.05 41.04L40.27 40.88L40.48 40.71L40.70 40.54L40.91 40.36L41.11 40.17L41.31 39.98L41.51 39.79L41.70 39.59L41.89 39.38L42.08 39.17L42.26 38.96L42.43 38.74L42.61 38.52L42.77 38.29L42.93 38.06L43.09 37.83L43.24 37.59L43.39 37.34L43.53 37.10L43.67 36.85L43.80 36.59L43.92 36.33L44.04 36.07L44.16 35.81L44.26 35.54L44.37 35.27L44.46 35.00L44.55 34.72L44.64 34.45L44.71 34.17L44.78 33.88L44.85 33.60L44.91 33.31L44.96 33.02L45.01 32.73L45.05 32.44L45.08 32.15L45.11 31.85L45.13 31.56L45.14 31.26L45.15 30.96L45.14 30.67L45.14 30.37L45.12 30.07L45.11 29.78L45.08 29.50L45.06 29.22L45.03 28.95L44.99 28.68L44.96 28.42L44.92 28.16L44.87 27.91L44.83 27.67L44.78 27.43L44.73 27.19L44.68 26.96L44.63 26.73L44.57 26.51L44.52 26.30L44.46 26.09L44.41 25.88L44.35 25.68L44.29 25.48L44.23 25.29L44.18 25.10L44.12 24.91L44.06 24.73L44.00 24.56L43.95 24.38L43.89 24.21L43.84 24.05L43.78 23.89L43.73 23.73L43.68 23.58L43.62 23.43L43.61 23.39" stroke-width="4.8"/></g><path d="M43.89 17.83L44.61 29.23L33.79 23.18Z" fill="#000000"/></g></svg>