<?xml version="1.0" encoding="UTF-8" standalone="no"?>
<svg
   viewBox="0 0 64 64"
   width="64"
   height="64"
   version="1.1"
   id="svg2"
   xmlns="http://www.w3.org/2000/svg"
   xmlns:svg="http://www.w3.org/2000/svg">
  <defs
     id="defs2" />
  <path
     id="circle1"
     style="fill:#ffff1e"
     d="M 64,32 A 32,32 0 0 1 32,64 32,32 0 0 1 0,32 32,32 0 0 1 32,0 32,32 0 0 1 64,32 Z" />
  <path
     style="baseline-shift:baseline;display:inline;overflow:visible;vector-effect:none;stroke-linecap:round;stroke-linejoin:round;enable-background:accumulate;stop-color:#000000;stop-opacity:1;opacity:1"
     d="m 33.320312,22.642578 -0.210937,0.0098 -0.208984,0.0098 -0.210938,0.0098 a 1.90019,1.90019 0 0 0 -0.177734,0.01758 l -0.166016,0.02344 -0.166016,0.01563 a 1.90019,1.90019 0 0 0 -0.191406,0.0293 l -0.201172,0.03906 -0.199218,0.03906 -0.201172,0.04102 a 1.90019,1.90019 0 0 0 -0.08789,0.01953 l -0.199219,0.05078 a 1.90019,1.90019 0 0 0 -0.111328,0.03125 l -0.191406,0.06055 -0.189453,0.05859 -0.189453,0.06055 a 1.90019,1.90019 0 0 0 -0.08398,0.0293 l -0.191406,0.07031 a 1.90019,1.90019 0 0 0 -0.113281,0.04687 l -0.181641,0.07813 -0.179687,0.08008 -0.179688,0.08008 a 1.90019,1.90019 0 0 0 -0.117187,0.05859 l -0.169922,0.08984 a 1.90019,1.90019 0 0 0 -0.07422,0.04102 l -0.154297,0.08984 -0.144531,0.08203 a 1.90019,1.90019 0 0 0 -0.09961,0.06055 l -0.169922,0.109375 a 1.90019,1.90019 0 0 0 -0.02344,0.01563 l -0.148437,0.09961 a 1.90019,1.90019 0 0 0 -0.02344,0.01563 l -0.160156,0.109375 a 1.90019,1.90019 0 0 0 -0.109375,0.08203 l -0.144531,0.115235 -0.132813,0.103515 a 1.90019,1.90019 0 0 0 -0.0625,0.05273 l -0.140625,0.11914 a 1.90019,1.90019 0 0 0 -0.05664,0.05078 l -0.138672,0.128906 a 1.90019,1.90019 0 0 0 -0.05078,0.04883 l -0.130859,0.130859 -0.128906,0.13086 a 1.90019,1.90019 0 0 0 -0.05273,0.05469 l -0.121093,0.128906 -0.119141,0.13086 a 1.90019,1.90019 0 0 0 -0.04687,0.05078 l -0.121094,0.140625 a 1.90019,1.90019 0 0 0 -0.05078,0.0625 l -0.109375,0.140625 a 1.90019,1.90019 0 0 0 -0.08789,0.119141 l -0.08203,0.125 -0.08203,0.115234 a 1.90019,1.90019 0 0 0 -0.03516,0.05078 l -0.09961,0.150391 a 1.90019,1.90019 0 0 0 -0.04883,0.07617 l -0.08984,0.148437 a 1.90019,1.90019 0 0 0 -0.04687,0.08398 l -0.08008,0.15039 -0.08008,0.150391 -0.08008,0.150391 a 1.90019,1.90019 0 0 0 -0.04492,0.08984 l -0.07031,0.150391 A 1.90019,1.90019 0 0 0 25.5,27.683594 l -0.05273,0.140625 -0.05078,0.130859 a 1.90019,1.90019 0 0 0 -0.01563,0.03711 l -0.06055,0.160157 a 1.90019,1.90019 0 0 0 -0.0332,0.101562 l -0.05078,0.160156 -0.05078,0.160157 a 1.90019,1.90019 0 0 0 -0.02148,0.07617 l -0.03906,0.15039 a 1.90019,1.90019 0 0 0 -0.0332,0.138672 l -0.01953,0.105469 -0.02539,0.103515 A 1.90019,1.90019 0 0 0 25.003906,29.375 l -0.01758,0.152344 -0.01953,0.140625 a 1.90019,1.90019 0 0 0 -0.002,0.01563 l -0.01953,0.160156 a 1.90019,1.90019 0 0 0 -0.01172,0.117187 l -0.0098,0.15625 -0.0098,0.146485 a 1.90019,1.90019 0 0 0 -0.0039,0.126953 v 0.148437 0.160157 0.15039 a 1.90019,1.90019 0 0 0 0.0039,0.126953 l 0.0098,0.150391 a 1.90019,1.90019 0 0 0 0.01367,0.125 l 0.01953,0.148438 0.01953,0.15039 a 1.90019,1.90019 0 0 0 0.002,0.01758 L 25,31.708984 a 1.90019,1.90019 0 0 0 0.01758,0.103516 l 0.0293,0.150391 a 1.90019,1.90019 0 0 0 0.0059,0.02539 l 0.0293,0.140625 0.0293,0.138672 a 1.90019,1.90019 0 0 0 0.03125,0.125 l 0.04102,0.138672 a 1.90019,1.90019 0 0 0 0.05273,0.160156 l 0.01953,0.05273 0.01758,0.05859 a 1.90019,1.90019 0 0 0 0.05273,0.160157 l 0.05078,0.128906 a 1.90019,1.90019 0 0 0 0.04883,0.115234 l 0.04492,0.09766 0.03516,0.08594 a 1.90019,1.90019 0 0 0 0.0293,0.06641 l 0.06055,0.128906 a 1.90019,1.90019 0 0 0 0.08398,0.16211 l 0.03906,0.06641 0.03125,0.06445 a 1.90019,1.90019 0 0 0 0.09766,0.171875 l 0.07031,0.109375 0.06836,0.109375 a 1.90019,1.90019 0 0 0 0.06641,0.09766 l 0.08008,0.109375 0.08008,0.111329 a 1.9,1.9 0 0 0 2.654296,0.417968 1.9,1.9 0 0 0 0.419922,-2.654297 l -0.08008,-0.109375 -0.04492,-0.0625 -0.03906,-0.06055 -0.01758,-0.02734 -0.01563,-0.03125 a 1.90019,1.90019 0 0 0 -0.05859,-0.107422 l -0.02344,-0.04102 -0.0078,-0.01563 -0.03711,-0.08789 a 1.90019,1.90019 0 0 0 -0.02734,-0.06445 l -0.03125,-0.06641 -0.01758,-0.06055 a 1.90019,1.90019 0 0 0 -0.05273,-0.160156 l -0.01953,-0.05078 -0.01758,-0.07422 -0.02539,-0.126953 -0.01758,-0.08594 -0.01172,-0.07813 -0.01953,-0.142579 -0.01172,-0.08789 v -0.02344 -0.08789 -0.160157 -0.08594 l 0.0039,-0.08594 a 1.90019,1.90019 0 0 0 0.002,-0.0078 l 0.0059,-0.101563 0.01172,-0.09375 0.01953,-0.142578 a 1.90019,1.90019 0 0 0 0.002,-0.01563 l 0.0059,-0.04687 0.01172,-0.04883 a 1.90019,1.90019 0 0 0 0.02344,-0.109375 l 0.01758,-0.08984 0.01172,-0.04297 0.03711,-0.121094 0.03516,-0.109375 0.0332,-0.0918 0.05273,-0.130859 A 1.90019,1.90019 0 0 0 29,29.177734 l 0.0332,-0.0918 0.01758,-0.03711 0.05664,-0.105469 0.07813,-0.148437 0.05859,-0.109375 0.04102,-0.06836 0.05859,-0.08789 0.08203,-0.115235 a 1.90019,1.90019 0 0 0 0.03516,-0.05078 l 0.05859,-0.08789 0.03906,-0.04883 0.07031,-0.08398 0.09766,-0.103516 0.09375,-0.101562 0.103516,-0.103516 0.105469,-0.105468 0.08594,-0.08008 0.08008,-0.07031 0.109375,-0.08398 a 1.90019,1.90019 0 0 0 0.01172,-0.0098 l 0.09766,-0.07813 0.0918,-0.0625 0.126953,-0.08594 0.109375,-0.07031 0.109375,-0.06055 a 1.90019,1.90019 0 0 0 0.03125,-0.01953 l 0.134766,-0.07813 0.07422,-0.03906 0.11914,-0.05469 0.181641,-0.08008 0.123047,-0.05469 0.08984,-0.0332 0.146484,-0.04492 0.189453,-0.06055 0.134766,-0.04297 0.101562,-0.02539 0.154297,-0.03125 0.201172,-0.03906 0.103516,-0.02148 0.113281,-0.0098 a 1.90019,1.90019 0 0 0 0.08789,-0.01172 l 0.121093,-0.01758 0.121094,-0.0059 0.210938,-0.0098 0.11914,-0.0059 0.119141,0.0059 a 1.90019,1.90019 0 0 0 0.08984,0.002 H 33.75 l 0.119141,0.01172 a 1.90019,1.90019 0 0 0 0.0098,0.002 l 0.169922,0.01563 0.162109,0.02148 a 1.90019,1.90019 0 0 0 0.01172,0.002 l 0.171875,0.02344 0.160156,0.03125 a 1.90019,1.90019 0 0 0 0.01563,0.002 l 0.179688,0.0332 0.128906,0.0293 0.132813,0.03711 0.179687,0.05859 0.160156,0.05273 0.171875,0.06641 0.173829,0.06641 0.140625,0.05859 0.175781,0.08398 0.160156,0.07617 0.119141,0.06641 0.169922,0.101562 0.169921,0.103516 0.152344,0.09766 0.144531,0.09961 0.138672,0.101562 0.164063,0.128906 0.146484,0.117188 0.138672,0.123047 0.138672,0.123047 0.111328,0.111328 0.130859,0.138672 0.140625,0.158203 0.144532,0.162109 0.109375,0.128906 0.117187,0.15625 0.119141,0.158204 0.109375,0.166015 0.111328,0.167969 0.08789,0.146484 0.103515,0.191407 0.0957,0.175781 0.08203,0.169922 0.08984,0.197265 0.07422,0.177735 0.07813,0.207031 0.07422,0.197266 0.06445,0.205078 0.06641,0.207031 0.05273,0.193359 0.04297,0.181641 0.04102,0.210937 0.04297,0.234375 0.0293,0.19336 0.02148,0.195312 0.01758,0.234375 0.01758,0.236328 0.0078,0.199219 v 0.244141 0.203125 l -0.01563,0.208984 -0.01758,0.236328 -0.02539,0.25 -0.02344,0.207032 -0.03516,0.199218 a 1.90019,1.90019 0 0 0 -0.0039,0.01172 l -0.04297,0.240234 -0.04492,0.207032 -0.05469,0.216797 -0.06836,0.230468 a 1.90019,1.90019 0 0 0 -0.0039,0.01758 l -0.07031,0.240235 -0.05664,0.171875 -0.08594,0.21289 a 1.90019,1.90019 0 0 0 -0.01367,0.03516 l -0.08398,0.214843 -0.08203,0.185547 L 39,37.041016 l -0.117188,0.234375 -0.113281,0.208984 -0.126953,0.222656 -0.126953,0.210938 -0.121094,0.189453 -0.130859,0.183594 -0.148438,0.199218 -0.162109,0.205078 -0.162109,0.195313 -0.15625,0.179687 -0.164063,0.171875 -0.193359,0.19336 -0.173828,0.173828 -0.179688,0.15625 -0.214844,0.1875 -0.193359,0.160156 -0.195313,0.148438 -0.195312,0.140625 -0.224609,0.146484 -0.246094,0.162109 -0.201172,0.125 -0.220703,0.119141 -0.25586,0.136719 -0.220703,0.111328 -0.242187,0.107422 -0.248047,0.109375 -0.230469,0.08594 -0.273437,0.09766 -0.265625,0.08789 -0.257813,0.08008 -0.255859,0.06641 -0.285156,0.07227 -0.236329,0.05078 -0.259765,0.04102 -0.298828,0.04492 -0.300782,0.03711 -0.273437,0.0332 -0.244141,0.01367 -0.300781,0.0098 -0.302734,0.0098 h -0.271485 l -0.259765,-0.0078 -0.289063,-0.01953 -0.277344,-0.01758 -0.277343,-0.02539 -0.269532,-0.02734 -0.242187,-0.03125 -0.25,-0.04297 a 1.90019,1.90019 0 0 0 -0.01172,-0.002 l -0.255859,-0.04297 -0.238281,-0.05078 a 1.90019,1.90019 0 0 0 -0.01367,-0.0039 l -0.283203,-0.05859 -0.232422,-0.04883 -0.232422,-0.06055 -0.238281,-0.0625 -0.228516,-0.06641 -0.25,-0.07813 -0.25,-0.07617 -0.207031,-0.06641 -0.21875,-0.07813 -0.238282,-0.08594 -0.195312,-0.07422 -0.208984,-0.08594 a 1.90019,1.90019 0 0 0 -0.03906,-0.01563 l -0.197266,-0.07813 -0.183593,-0.08008 -0.205078,-0.09375 -0.220704,-0.09961 -0.203125,-0.0918 L 23.830078,40.5 23.652344,40.40625 a 1.90019,1.90019 0 0 0 -0.0332,-0.01563 l -0.183594,-0.0918 -0.191406,-0.101562 -0.173829,-0.08984 -0.185546,-0.101563 a 1.90019,1.90019 0 0 0 -0.0293,-0.01758 l -0.15625,-0.08203 -0.138672,-0.08008 -0.160156,-0.09766 a 1.90019,1.90019 0 0 0 -0.06836,-0.03906 l -0.144531,-0.08203 -0.146484,-0.08789 a 1.90019,1.90019 0 0 0 -0.06836,-0.04102 l -0.125,-0.06836 -0.115234,-0.07617 a 1.90019,1.90019 0 0 0 -0.06836,-0.04102 l -0.148437,-0.08789 -0.138672,-0.08594 a 1.90019,1.90019 0 0 0 -0.04297,-0.02734 l -0.113281,-0.06641 -0.103516,-0.07031 a 1.90019,1.90019 0 0 0 -0.07031,-0.04687 l -0.136719,-0.08398 -0.126953,-0.08594 a 1.90019,1.90019 0 0 0 -0.121094,-0.07422 l -0.09766,-0.05469 -0.08984,-0.06055 -0.15039,-0.09961 a 1.90019,1.90019 0 0 0 -0.07617,-0.04883 l -0.08594,-0.05078 -0.07813,-0.05664 a 1.90019,1.90019 0 0 0 -0.07617,-0.05078 l -0.140625,-0.08984 -0.140625,-0.08984 -0.138671,-0.08984 a 1.90019,1.90019 0 0 0 -0.08594,-0.05273 l -0.0957,-0.05469 -0.07227,-0.04687 -0.101562,-0.07031 a 1.90019,1.90019 0 0 0 -0.08594,-0.05664 l -0.130859,-0.08008 -0.128906,-0.08008 -0.13086,-0.08008 -0.130859,-0.08008 a 1.90019,1.90019 0 0 0 -0.03711,-0.02148 L 18.486328,37.291016 18.375,37.222656 a 1.90019,1.90019 0 0 0 -0.03711,-0.02344 l -0.121094,-0.07031 -0.119141,-0.07031 -0.121094,-0.07031 a 1.90019,1.90019 0 0 0 -0.107421,-0.05859 l -0.06445,-0.03125 -0.06641,-0.03906 a 1.90019,1.90019 0 0 0 -0.04883,-0.02734 l -0.109375,-0.06055 a 1.90019,1.90019 0 0 0 -0.06055,-0.03125 l -0.08984,-0.04492 -0.08008,-0.04297 a 1.90019,1.90019 0 0 0 -0.06055,-0.03125 l -0.11914,-0.06055 a 1.90019,1.90019 0 0 0 -0.06445,-0.0293 l -0.04687,-0.02148 -0.04883,-0.02734 a 1.90019,1.90019 0 0 0 -0.123047,-0.0625 l -0.111328,-0.04883 -0.109375,-0.05078 a 1.90019,1.90019 0 0 0 -0.136719,-0.05664 l -0.04102,-0.01367 -0.04297,-0.01953 a 1.90019,1.90019 0 0 0 -0.136718,-0.05664 l -0.109375,-0.03906 -0.08203,-0.0293 -0.07227,-0.0293 a 1.90019,1.90019 0 0 0 -0.05469,-0.02148 l -0.08203,-0.0293 -0.07226,-0.0293 a 1.90019,1.90019 0 0 0 -0.205079,-0.06836 l -0.08789,-0.02539 -0.07617,-0.02148 a 1.90019,1.90019 0 0 0 -0.04687,-0.01367 l -0.08594,-0.02344 -0.07813,-0.02344 a 1.90019,1.90019 0 0 0 -0.173828,-0.04297 l -0.01172,-0.002 -0.01367,-0.0059 a 1.90019,1.90019 0 0 0 -0.173828,-0.04297 l -0.09961,-0.01953 a 1.90019,1.90019 0 0 0 -0.0332,-0.0059 l -0.09375,-0.01758 -0.08398,-0.01758 -0.09961,-0.01953 a 1.90019,1.90019 0 0 0 -0.183593,-0.02734 l -0.08789,-0.0078 -0.01758,-0.0039 A 1.90019,1.90019 0 0 0 14,35.580078 l -0.101562,-0.0098 a 1.90019,1.90019 0 0 0 -0.1875,-0.0098 h -0.0059 l -0.0059,-0.002 a 1.90019,1.90019 0 0 0 -0.183594,-0.0078 l -0.0059,-0.002 a 1.90019,1.90019 0 0 0 -0.189453,-0.0098 h -0.09961 -0.101562 -0.08984 a 1.90019,1.90019 0 0 0 -0.1875,0.0098 l -0.0059,0.002 a 1.90019,1.90019 0 0 0 -0.185547,0.0078 l -0.0059,0.002 a 1.90019,1.90019 0 0 0 -0.183593,0.0098 l -0.09961,0.0098 a 1.90019,1.90019 0 0 0 -0.02148,0.002 l -0.08008,0.0078 -0.08789,0.0098 a 1.90019,1.90019 0 0 0 -0.02148,0.002 l -0.08984,0.0098 a 1.90019,1.90019 0 0 0 -0.164063,0.02539 l -0.01758,0.0039 -0.0078,0.002 a 1.90019,1.90019 0 0 0 -0.169922,0.02734 1.90019,1.90019 0 0 0 -0.0332,0.0059 1.90019,1.90019 0 0 0 -0.189453,0.0293 l -0.07031,0.01563 -0.08008,0.01563 a 1.90019,1.90019 0 0 0 -0.04102,0.0098 l -0.08984,0.01953 -0.08984,0.01953 -0.07031,0.01563 -0.08008,0.01563 a 1.90019,1.90019 0 0 0 -0.03906,0.0098 l -0.08984,0.01953 -0.08984,0.01953 a 1.90019,1.90019 0 0 0 -0.15039,0.04102 1.90019,1.90019 0 0 0 -0.01953,0.0059 1.90019,1.90019 0 0 0 -0.201171,0.05273 h -0.002 l -0.0059,0.002 -0.08203,0.01758 a 1.90019,1.90019 0 0 0 -0.132813,0.03516 l -0.03516,0.0098 -0.02148,0.0059 a 1.90019,1.90019 0 0 0 -0.1894535,0.05273 l -0.089844,0.0293 a 1.9,1.9 0 0 0 -1.2011719,2.404297 1.9,1.9 0 0 0 2.4003911,1.201172 1.9,1.9 0 0 0 0.0039,0 1.90019,1.90019 0 0 0 0.125,-0.0332 l 0.0332,-0.0098 0.02148,-0.0059 0.08984,-0.01953 a 1.90019,1.90019 0 0 0 0.169922,-0.04687 1.90019,1.90019 0 0 0 0.207031,-0.05469 l 0.06445,-0.01367 0.08008,-0.01563 a 1.90019,1.90019 0 0 0 0.03906,-0.0078 l 0.08984,-0.02148 0.08984,-0.01953 0.07031,-0.01563 0.08008,-0.01563 a 1.90019,1.90019 0 0 0 0.0078,-0.002 l 0.01172,-0.002 0.0078,-0.002 a 1.90019,1.90019 0 0 0 0.01367,-0.002 1.90019,1.90019 0 0 0 0.166015,-0.02734 l 0.01367,-0.002 0.0098,-0.002 a 1.90019,1.90019 0 0 0 0.140625,-0.02148 l 0.01563,-0.0039 0.08984,-0.0078 a 1.90019,1.90019 0 0 0 0.02148,-0.002 l 0.07422,-0.0098 a 1.90019,1.90019 0 0 0 0.185547,-0.0098 1.90019,1.90019 0 0 0 0.189453,-0.0098 h 0.0059 0.0957 0.0039 0.0059 a 1.90019,1.90019 0 0 0 0.189453,0.0098 h 0.002 a 1.90019,1.90019 0 0 0 0.134766,0.0078 1.90019,1.90019 0 0 0 0.142578,0.02148 l 0.0918,0.0098 a 1.90019,1.90019 0 0 0 0.01953,0.002 h 0.0078 l 0.0098,0.002 0.09961,0.02148 a 1.90019,1.90019 0 0 0 0.0332,0.0059 l 0.08789,0.01563 0.01563,0.0039 a 1.90019,1.90019 0 0 0 0.173828,0.04297 l 0.01172,0.0039 0.01367,0.0039 a 1.90019,1.90019 0 0 0 0.04687,0.01367 l 0.08594,0.02344 0.07813,0.02344 a 1.90019,1.90019 0 0 0 0.04492,0.01172 l 0.0039,0.002 a 1.90019,1.90019 0 0 0 0.05664,0.02148 l 0.08203,0.0293 0.07227,0.0293 a 1.90019,1.90019 0 0 0 0.05664,0.02148 l 0.109375,0.03906 0.04101,0.01563 0.04297,0.01953 a 1.90019,1.90019 0 0 0 0.136719,0.05469 l 0.04101,0.01563 0.04102,0.01953 0.04687,0.02148 0.05078,0.02734 a 1.90019,1.90019 0 0 0 0.123047,0.06055 l 0.07813,0.03516 0.05859,0.0293 0.08008,0.04492 a 1.90019,1.90019 0 0 0 0.06055,0.03125 l 0.08789,0.04492 0.05664,0.0293 0.09766,0.05664 a 1.90019,1.90019 0 0 0 0.107422,0.05859 l 0.06445,0.0332 0.06836,0.03906 0.11914,0.07031 0.09961,0.05859 0.111328,0.06836 a 1.90019,1.90019 0 0 0 0.03906,0.02148 l 0.09961,0.05859 0.111328,0.06836 0.130859,0.08008 0.128906,0.08008 0.08789,0.05273 0.08789,0.0625 a 1.90019,1.90019 0 0 0 0.05273,0.03516 l 0.140625,0.08984 a 1.90019,1.90019 0 0 0 0.08398,0.05273 l 0.09766,0.05469 0.09766,0.0625 0.140625,0.08984 0.101562,0.06641 0.101563,0.07227 a 1.90019,1.90019 0 0 0 0.126953,0.08203 l 0.111328,0.06836 0.111328,0.07422 0.150391,0.09961 a 1.90019,1.90019 0 0 0 0.123047,0.07617 l 0.09766,0.05469 L 18.826172,42 a 1.90019,1.90019 0 0 0 0.04687,0.03125 l 0.125,0.07813 0.125,0.08594 a 1.90019,1.90019 0 0 0 0.113281,0.07227 l 0.148438,0.08789 0.138671,0.08594 a 1.90019,1.90019 0 0 0 0.04297,0.02539 l 0.134766,0.08008 0.136719,0.08789 a 1.90019,1.90019 0 0 0 0.109375,0.06641 l 0.146484,0.08008 0.144531,0.08984 a 1.90019,1.90019 0 0 0 0.06836,0.03906 l 0.146484,0.08203 0.146484,0.08984 a 1.90019,1.90019 0 0 0 0.03906,0.02148 l 0.189453,0.111328 a 1.90019,1.90019 0 0 0 0.06641,0.03711 l 0.175781,0.0918 0.183594,0.101562 a 1.90019,1.90019 0 0 0 0.03125,0.01563 l 0.189453,0.09961 a 1.90019,1.90019 0 0 0 0.0039,0.002 l 0.208984,0.111328 a 1.90019,1.90019 0 0 0 0.0332,0.01563 l 0.183594,0.0918 0.193359,0.101562 a 1.90019,1.90019 0 0 0 0.06641,0.0332 l 0.208985,0.09961 a 1.90019,1.90019 0 0 0 0.03125,0.01367 l 0.21875,0.09961 0.220703,0.101563 0.220703,0.09961 a 1.90019,1.90019 0 0 0 0.02734,0.01172 l 0.230469,0.101562 a 1.90019,1.90019 0 0 0 0.06445,0.02539 l 0.210937,0.08398 0.220703,0.0918 a 1.90019,1.90019 0 0 0 0.06445,0.02539 l 0.240235,0.08984 a 1.90019,1.90019 0 0 0 0.02344,0.0078 l 0.25,0.08984 0.25,0.08984 a 1.90019,1.90019 0 0 0 0.06445,0.02148 l 0.25,0.08008 a 1.90019,1.90019 0 0 0 0.01953,0.0078 l 0.261718,0.08008 0.259766,0.08008 a 1.90019,1.90019 0 0 0 0.01758,0.0059 l 0.271485,0.07813 a 1.90019,1.90019 0 0 0 0.0625,0.01758 l 0.269531,0.07031 0.269531,0.07031 a 1.90019,1.90019 0 0 0 0.08008,0.01953 l 0.279297,0.05859 a 1.90019,1.90019 0 0 0 0.01367,0.0039 l 0.283203,0.05859 0.273438,0.05859 a 1.90019,1.90019 0 0 0 0.08594,0.01563 l 0.294922,0.04883 0.283203,0.04883 a 1.90019,1.90019 0 0 0 0.08008,0.01367 l 0.310547,0.03906 a 1.90019,1.90019 0 0 0 0.05469,0.0059 l 0.298828,0.03125 a 1.90019,1.90019 0 0 0 0.0059,0 l 0.310547,0.0293 a 1.90019,1.90019 0 0 0 0.06055,0.0059 l 0.310547,0.01953 a 1.90019,1.90019 0 0 0 0.0039,0 l 0.320312,0.01953 a 1.90019,1.90019 0 0 0 0.05859,0.0039 l 0.320313,0.0098 a 1.90019,1.90019 0 0 0 0.05859,0 h 0.330079 a 1.90019,1.90019 0 0 0 0.05859,0 l 0.330078,-0.0098 0.330079,-0.0098 a 1.90019,1.90019 0 0 0 0.05664,-0.0039 l 0.330078,-0.01953 a 1.90019,1.90019 0 0 0 0.113282,-0.0098 l 0.330078,-0.04102 0.330078,-0.03906 a 1.90019,1.90019 0 0 0 0.05664,-0.0078 l 0.330079,-0.05078 a 1.90019,1.90019 0 0 0 0.0078,0 l 0.320313,-0.05078 a 1.90019,1.90019 0 0 0 0.113281,-0.02148 l 0.318359,-0.07031 a 1.90019,1.90019 0 0 0 0.05469,-0.01172 l 0.320312,-0.08008 a 1.90019,1.90019 0 0 0 0.01367,-0.0039 l 0.310547,-0.08008 a 1.90019,1.90019 0 0 0 0.0918,-0.02539 l 0.320312,-0.09961 a 1.90019,1.90019 0 0 0 0.03516,-0.01172 l 0.298828,-0.09961 a 1.90019,1.90019 0 0 0 0.03516,-0.01172 l 0.310547,-0.111328 a 1.90019,1.90019 0 0 0 0.03711,-0.01367 l 0.291016,-0.109375 a 1.90019,1.90019 0 0 0 0.08203,-0.0332 l 0.298828,-0.130859 a 1.90019,1.90019 0 0 0 0.02148,-0.0098 l 0.291015,-0.128906 a 1.90019,1.90019 0 0 0 0.07227,-0.03516 l 0.279297,-0.140625 a 1.90019,1.90019 0 0 0 0.04883,-0.02344 l 0.279297,-0.150391 0.279297,-0.15039 a 1.90019,1.90019 0 0 0 0.115234,-0.06641 l 0.269531,-0.169922 a 1.90019,1.90019 0 0 0 0.0293,-0.01758 l 0.259766,-0.169922 0.259765,-0.169922 a 1.90019,1.90019 0 0 0 0.07031,-0.04883 l 0.25,-0.179688 a 1.90019,1.90019 0 0 0 0.03906,-0.0293 l 0.25,-0.189453 a 1.90019,1.90019 0 0 0 0.06641,-0.05273 l 0.240234,-0.201172 a 1.90019,1.90019 0 0 0 0.03125,-0.02539 l 0.228516,-0.201172 0.230468,-0.199218 a 1.90019,1.90019 0 0 0 0.09766,-0.08984 l 0.21875,-0.220703 0.210937,-0.208985 a 1.90019,1.90019 0 0 0 0.03125,-0.03125 l 0.208984,-0.220703 a 1.90019,1.90019 0 0 0 0.06055,-0.06445 l 0.199219,-0.230469 a 1.90019,1.90019 0 0 0 0.03125,-0.03711 l 0.189453,-0.230469 a 1.90019,1.90019 0 0 0 0.02539,-0.03125 l 0.189453,-0.238281 a 1.90019,1.90019 0 0 0 0.03125,-0.04102 l 0.179687,-0.238281 a 1.90019,1.90019 0 0 0 0.0293,-0.04297 l 0.169922,-0.240234 a 1.90019,1.90019 0 0 0 0.05078,-0.07422 l 0.160157,-0.25 a 1.90019,1.90019 0 0 0 0.0293,-0.04492 l 0.15039,-0.25 a 1.90019,1.90019 0 0 0 0.01563,-0.0293 l 0.150391,-0.259766 a 1.90019,1.90019 0 0 0 0.02734,-0.04883 l 0.138671,-0.259766 A 1.90019,1.90019 0 0 0 42.269531,39 l 0.128906,-0.259766 0.13086,-0.259765 a 1.90019,1.90019 0 0 0 0.03711,-0.07813 l 0.119141,-0.271485 a 1.90019,1.90019 0 0 0 0.03711,-0.08789 l 0.09375,-0.244141 0.103516,-0.251953 a 1.90019,1.90019 0 0 0 0.04297,-0.115234 l 0.08984,-0.271485 a 1.90019,1.90019 0 0 0 0.02344,-0.07813 l 0.07813,-0.271484 0.07813,-0.261719 a 1.90019,1.90019 0 0 0 0.02148,-0.07813 l 0.07031,-0.279297 a 1.90019,1.90019 0 0 0 0.0098,-0.04883 l 0.06055,-0.269531 a 1.90019,1.90019 0 0 0 0.01563,-0.07813 l 0.04883,-0.275391 0.04883,-0.263672 a 1.90019,1.90019 0 0 0 0.02148,-0.142578 l 0.0293,-0.28125 0.03125,-0.279297 a 1.90019,1.90019 0 0 0 0.0059,-0.0625 l 0.01953,-0.269531 a 1.90019,1.90019 0 0 0 0,-0.0059 l 0.01953,-0.279297 a 1.90019,1.90019 0 0 0 0.0059,-0.134766 V 33.529297 33.25 a 1.90019,1.90019 0 0 0 -0.002,-0.07031 l -0.0098,-0.269531 a 1.90019,1.90019 0 0 0 -0.0039,-0.07031 l -0.01953,-0.269532 -0.02148,-0.271484 a 1.90019,1.90019 0 0 0 -0.0059,-0.06836 l -0.0293,-0.269532 a 1.90019,1.90019 0 0 0 -0.01172,-0.08008 l -0.03906,-0.259765 a 1.90019,1.90019 0 0 0 -0.0098,-0.05664 L 43.4375,31.294922 a 1.90019,1.90019 0 0 0 -0.002,-0.01367 l -0.04883,-0.259766 a 1.90019,1.90019 0 0 0 -0.01953,-0.08398 l -0.06055,-0.25 a 1.90019,1.90019 0 0 0 -0.01172,-0.05078 l -0.07031,-0.259766 a 1.90019,1.90019 0 0 0 -0.02539,-0.08594 l -0.08008,-0.25 -0.08008,-0.25 a 1.90019,1.90019 0 0 0 -0.0293,-0.08789 l -0.08984,-0.240234 -0.0918,-0.240235 a 1.90019,1.90019 0 0 0 -0.02344,-0.0625 l -0.101562,-0.240234 a 1.90019,1.90019 0 0 0 -0.02539,-0.0625 l -0.111328,-0.238281 a 1.90019,1.90019 0 0 0 -0.01172,-0.0293 l -0.111328,-0.230469 a 1.90019,1.90019 0 0 0 -0.04492,-0.08984 l -0.121093,-0.21875 -0.119141,-0.220703 a 1.90019,1.90019 0 0 0 -0.0332,-0.05664 l -0.128906,-0.220703 a 1.90019,1.90019 0 0 0 -0.05469,-0.08594 l -0.140625,-0.210938 -0.140625,-0.208984 a 1.90019,1.90019 0 0 0 -0.06055,-0.08594 l -0.15039,-0.201171 -0.148438,-0.199219 a 1.90019,1.90019 0 0 0 -0.06836,-0.08398 l -0.158203,-0.189453 a 1.90019,1.90019 0 0 0 -0.0332,-0.03906 l -0.160157,-0.179688 -0.160156,-0.179687 a 1.90019,1.90019 0 0 0 -0.03906,-0.04297 l -0.169922,-0.179687 a 1.90019,1.90019 0 0 0 -0.03906,-0.03906 l -0.169922,-0.169922 a 1.90019,1.90019 0 0 0 -0.08008,-0.07617 l -0.179687,-0.160156 -0.181641,-0.160156 a 1.90019,1.90019 0 0 0 -0.08398,-0.07227 l -0.189453,-0.15039 -0.191407,-0.148438 a 1.90019,1.90019 0 0 0 -0.04883,-0.03906 L 39.15625,24.509766 a 1.90019,1.90019 0 0 0 -0.05273,-0.03711 L 38.912109,24.341797 A 1.90019,1.90019 0 0 0 38.875,24.316406 L 38.675781,24.1875 a 1.90019,1.90019 0 0 0 -0.05859,-0.03711 L 38.417969,24.03125 38.216797,23.910156 A 1.90019,1.90019 0 0 0 38.15625,23.875 l -0.201172,-0.109375 a 1.90019,1.90019 0 0 0 -0.09766,-0.05078 L 37.646484,23.615234 37.4375,23.513672 a 1.90019,1.90019 0 0 0 -0.06836,-0.0293 l -0.210938,-0.08984 a 1.90019,1.90019 0 0 0 -0.07227,-0.0293 l -0.208984,-0.08008 -0.210937,-0.08008 a 1.90019,1.90019 0 0 0 -0.07422,-0.02734 l -0.210938,-0.07031 a 1.90019,1.90019 0 0 0 -0.02539,-0.0078 l -0.21875,-0.07031 a 1.90019,1.90019 0 0 0 -0.05469,-0.01563 l -0.210937,-0.06055 a 1.90019,1.90019 0 0 0 -0.09961,-0.02539 l -0.220703,-0.05078 a 1.90019,1.90019 0 0 0 -0.08008,-0.01563 l -0.212891,-0.03906 -0.203125,-0.03906 a 1.90019,1.90019 0 0 0 -0.09766,-0.01563 l -0.214844,-0.0293 -0.203125,-0.0293 a 1.90019,1.90019 0 0 0 -0.09766,-0.01172 l -0.214844,-0.01953 -0.207031,-0.01953 a 1.90019,1.90019 0 0 0 -0.179687,-0.0078 H 33.666016 L 33.5,22.642578 a 1.90019,1.90019 0 0 0 -0.179688,0 z"
     id="path1" />
  <path
     d="M6.54 38.94L13.00 32.06L15.56 41.73Z"
     fill="#000000"
     id="path2" />
</svg>
