<svg xmlns="http://www.w3.org/2000/svg" viewBox="0 0 64 64" width="64" height="64"><circle cx="32" cy="32" r="32" fill="#FFFF1E"/><path d="M33.45 26.18L33.58 26.18L33.71 26.18L33.84 26.18L33.97 26.19L34.10 26.20L34.23 26.21L34.36 26.22L34.50 26.24L34.63 26.26L34.76 26.29L34.89 26.32L35.03 26.35L35.16 26.38L35.29 26.42L35.43 26.46L35.56 26.50L35.69 26.55L35.82 26.60L35.95 26.65L36.08 26.70L36.21 26.76L36.34 26.82L36.47 26.89L36.60 26.96L36.72 27.03L36.85 27.10L36.97 27.18L37.10 27.26L37.22 27.34L37.34 27.43L37.46 27.52L37.58 27.61L37.70 27.70L37.81 27.80L37.93 27.90L38.04 28.01L38.15 28.11L38.26 28.22L38.36 28.34L38.47 28.45L38.57 28.57L38.67 28.69L38.77 28.82L38.86 28.94L38.95 29.07L39.05 29.20L39.13 29.34L39.22 29.47L39.30 29.61L39.38 29.75L39.46 29.89L39.54 30.04L39.61 30.19L39.68 30.34L39.74 30.49L39.81 30.64L39.87 30.80L39.93 30.96L39.98 31.12L40.03 31.28L40.08 31.44L40.12 31.61L40.16 31.77L40.20 31.94L40.23 32.11L40.26 32.28L40.29 32.46L40.31 32.63L40.33 32.80L40.35 32.98L40.36 33.16L40.37 33.33L40.37 33.51L40.37 33.69L40.37 33.87L40.36 34.05L40.35 34.23L40.34 34.41L40.32 34.59L40.30 34.78L40.27 34.96L40.24 35.14L40.21 35.32L40.17 35.50L40.12 35.69L40.08 35.87L40.03 36.05L39.97 36.23L39.91 36.41L39.85 36.59L39.78 36.77L39.71 36.95L39.64 37.12L39.56 37.30L39.48 37.47L39.39 37.65L39.30 37.82L39.20 37.99L39.10 38.16L39.00 38.33L38.89 38.50L38.78 38.66L38.67 38.82L38.55 38.99L38.43 39.14L38.30 39.30L38.17 39.46L38.04 39.61L37.90 39.76L37.76 39.91L37.61 40.05L37.47 40.19L37.31 40.33L37.16 40.47L37.00 40.61L36.84 40.74L36.67 40.87L36.50 40.99L36.33 41.11L36.16 41.23L35.98 41.35L35.80 41.46L35.62 41.57L35.43 41.67L35.24 41.77L35.05 41.87L34.85 41.97L34.66 42.05L34.46 42.14L34.25 42.22L34.05 42.30L33.84 42.38L33.63 42.44L33.42 42.51L33.21 42.57L33.00 42.63L32.78 42.68L32.56 42.73L32.34 42.77L32.12 42.81L31.89 42.85L31.67 42.88L31.44 42.90L31.22 42.92L30.99 42.94L30.76 42.95L30.53 42.95L30.30 42.96L30.07 42.95L29.84 42.94L29.60 42.93L29.37 42.91L29.14 42.89L28.90 42.86L28.67 42.83L28.44 42.79L28.20 42.75L27.97 42.70L27.74 42.64L27.51 42.59L27.28 42.52L27.04 42.45L26.81 42.38L26.59 42.30L26.36 42.22L26.13 42.13L25.91 42.04L25.68 41.94L25.46 41.83L25.24 41.72L25.02 41.61L24.80 41.49L24.59 41.37L24.37 41.24L24.16 41.11L23.95 40.97L23.75 40.83L23.54 40.68L23.34 40.53L23.14 40.37L22.95 40.21L22.75 40.04L22.56 39.87L22.37 39.70L22.19 39.52L22.01 39.34L21.83 39.15L21.66 38.96L21.49 38.76L21.32 38.56L21.16 38.36L21.00 38.15L20.85 37.94L20.70 37.72L20.55 37.50L20.41 37.28L20.27 37.05L20.14 36.82L20.01 36.59L19.88 36.35L19.76 36.12L19.65 35.89L19.54 35.66L19.44 35.43L19.34 35.20L19.24 34.98L19.15 34.76L19.07 34.53L18.98 34.31L18.90 34.10L18.83 33.88L18.75 33.67L18.68 33.46L18.62 33.25L18.56 33.04L18.49 32.84L18.44 32.64L18.38 32.44L18.33 32.24L18.28 32.05L18.23 31.86L18.18 31.67L18.14 31.48L18.09 31.30L18.05 31.11L18.01 30.93L17.97 30.76L17.94 30.58L17.90 30.41L17.87 30.24L17.83 30.07L17.80 29.91L17.77 29.75L17.73 29.59L17.70 29.43L17.67 29.28L17.64 29.12L17.61 28.97L17.58 28.83L17.55 28.68L17.53 28.54L17.50 28.40L17.47 28.26L17.44 28.12L17.41 27.99L17.38 27.86L17.35 27.73L17.32 27.60L17.29 27.48L17.26 27.35L17.23 27.23L17.20 27.11L17.17 27.00L17.14 26.88L17.11 26.77L17.08 26.66L17.04 26.55L17.01 26.45L16.98 26.34L16.94 26.24L16.90 26.14L16.87 26.04L16.83 25.94L16.79 25.85L16.76 25.75L16.72 25.66L16.68 25.57L16.63 25.49L16.59 25.40L16.55 25.31L16.51 25.23L16.46 25.15L16.42 25.07L16.37 24.99L16.32 24.92L16.28 24.84L16.23 24.77L16.18 24.69L16.13 24.62L16.08 24.55L16.03 24.49L15.97 24.42L15.92 24.36L15.87 24.29L15.81 24.23L15.75 24.17L15.70 24.11L15.64 24.05L15.58 23.99L15.52 23.94L15.46 23.88L15.40 23.83L15.34 23.77L15.28 23.72L15.22 23.67L15.15 23.62L15.09 23.57L15.02 23.53L14.96 23.48L14.89 23.43L14.83 23.39L14.76 23.34L14.69 23.30L14.62 23.26L14.56 23.21L14.49 23.17L14.42 23.13L14.35 23.09L14.28 23.05L14.21 23.01L14.14 22.97L14.07 22.94L14.00 22.90L13.92 22.86L13.85 22.82L13.78 22.79L13.71 22.75L13.64 22.71L13.57 22.68L13.49 22.64" fill="none" stroke="#000000" stroke-width="4.8" stroke-linecap="round" stroke-linejoin="round"/><path d="M9.32 20.48L20.52 19.29L14.82 30.31Z" fill="#000000"/></svg>